<mxfile host="app.diagrams.net" modified="2022-09-10T00:59:52.859Z" agent="5.0 (Windows NT 10.0; Win64; x64) AppleWebKit/537.36 (KHTML, like Gecko) Chrome/105.0.0.0 Safari/537.36" etag="GwT5v9tKs2xh4--jmwpT" version="20.3.0" type="github">
  <diagram id="GG8lb_p_q7sB_TVdmmQd" name="第 1 页">
    <mxGraphModel dx="782" dy="468" grid="1" gridSize="10" guides="1" tooltips="1" connect="1" arrows="1" fold="1" page="1" pageScale="1" pageWidth="827" pageHeight="1169" math="0" shadow="0">
      <root>
        <mxCell id="0" />
        <mxCell id="1" parent="0" />
        <mxCell id="CHa4DZ00IoieFwtZ9VFr-2" value="" style="shape=flexArrow;endArrow=classic;html=1;rounded=0;fillColor=#f5f5f5;strokeColor=#666666;" edge="1" parent="1">
          <mxGeometry width="50" height="50" relative="1" as="geometry">
            <mxPoint x="530" y="70" as="sourcePoint" />
            <mxPoint x="300" y="70" as="targetPoint" />
          </mxGeometry>
        </mxCell>
        <mxCell id="CHa4DZ00IoieFwtZ9VFr-3" value="&lt;font style=&quot;font-size: 15px;&quot;&gt;井下机器人采集数据&lt;/font&gt;" style="text;html=1;align=center;verticalAlign=middle;resizable=0;points=[];autosize=1;strokeColor=none;fillColor=none;" vertex="1" parent="1">
          <mxGeometry x="330" y="30" width="160" height="30" as="geometry" />
        </mxCell>
        <mxCell id="CHa4DZ00IoieFwtZ9VFr-4" value="" style="endArrow=classic;html=1;rounded=0;fontSize=15;fontColor=none;" edge="1" parent="1">
          <mxGeometry width="50" height="50" relative="1" as="geometry">
            <mxPoint x="415" y="76" as="sourcePoint" />
            <mxPoint x="415" y="116" as="targetPoint" />
          </mxGeometry>
        </mxCell>
        <mxCell id="CHa4DZ00IoieFwtZ9VFr-9" value="" style="edgeStyle=entityRelationEdgeStyle;startArrow=none;endArrow=none;segment=10;curved=1;rounded=0;fontSize=15;fontColor=none;" edge="1" parent="1">
          <mxGeometry relative="1" as="geometry">
            <mxPoint x="529" y="70" as="sourcePoint" />
            <mxPoint x="600" y="50" as="targetPoint" />
          </mxGeometry>
        </mxCell>
        <mxCell id="CHa4DZ00IoieFwtZ9VFr-27" style="edgeStyle=orthogonalEdgeStyle;rounded=0;orthogonalLoop=1;jettySize=auto;html=1;exitX=0.5;exitY=1;exitDx=0;exitDy=0;entryX=0.5;entryY=0;entryDx=0;entryDy=0;fontSize=15;fontColor=none;" edge="1" parent="1" source="CHa4DZ00IoieFwtZ9VFr-10" target="CHa4DZ00IoieFwtZ9VFr-11">
          <mxGeometry relative="1" as="geometry" />
        </mxCell>
        <mxCell id="CHa4DZ00IoieFwtZ9VFr-10" value="数据收集模块" style="rounded=0;whiteSpace=wrap;html=1;fontSize=15;fontColor=#333333;fillColor=#f5f5f5;strokeColor=#666666;" vertex="1" parent="1">
          <mxGeometry x="300" y="117" width="230" height="33" as="geometry" />
        </mxCell>
        <mxCell id="CHa4DZ00IoieFwtZ9VFr-29" style="edgeStyle=orthogonalEdgeStyle;rounded=0;orthogonalLoop=1;jettySize=auto;html=1;exitX=0.5;exitY=1;exitDx=0;exitDy=0;entryX=0.5;entryY=0;entryDx=0;entryDy=0;fontSize=15;fontColor=none;" edge="1" parent="1" source="CHa4DZ00IoieFwtZ9VFr-11" target="CHa4DZ00IoieFwtZ9VFr-15">
          <mxGeometry relative="1" as="geometry" />
        </mxCell>
        <mxCell id="CHa4DZ00IoieFwtZ9VFr-11" value="数据处理增强模块" style="rounded=0;whiteSpace=wrap;html=1;fontSize=15;fontColor=#333333;fillColor=#f5f5f5;strokeColor=#666666;" vertex="1" parent="1">
          <mxGeometry x="300" y="188" width="230" height="33" as="geometry" />
        </mxCell>
        <mxCell id="CHa4DZ00IoieFwtZ9VFr-13" value="" style="edgeStyle=entityRelationEdgeStyle;startArrow=none;endArrow=none;segment=10;curved=1;rounded=0;fontSize=15;fontColor=none;" edge="1" parent="1">
          <mxGeometry relative="1" as="geometry">
            <mxPoint x="530" y="134" as="sourcePoint" />
            <mxPoint x="601" y="114" as="targetPoint" />
          </mxGeometry>
        </mxCell>
        <mxCell id="CHa4DZ00IoieFwtZ9VFr-14" value="" style="edgeStyle=entityRelationEdgeStyle;startArrow=none;endArrow=none;segment=10;curved=1;rounded=0;fontSize=15;fontColor=none;" edge="1" parent="1">
          <mxGeometry relative="1" as="geometry">
            <mxPoint x="530" y="205" as="sourcePoint" />
            <mxPoint x="601" y="185" as="targetPoint" />
          </mxGeometry>
        </mxCell>
        <mxCell id="CHa4DZ00IoieFwtZ9VFr-30" style="edgeStyle=orthogonalEdgeStyle;rounded=0;orthogonalLoop=1;jettySize=auto;html=1;exitX=0.5;exitY=1;exitDx=0;exitDy=0;fontSize=15;fontColor=none;" edge="1" parent="1" source="CHa4DZ00IoieFwtZ9VFr-15">
          <mxGeometry relative="1" as="geometry">
            <mxPoint x="414" y="330" as="targetPoint" />
            <Array as="points">
              <mxPoint x="414" y="330" />
              <mxPoint x="414" y="330" />
            </Array>
          </mxGeometry>
        </mxCell>
        <mxCell id="CHa4DZ00IoieFwtZ9VFr-15" value="数据集构建模块" style="rounded=0;whiteSpace=wrap;html=1;fontSize=15;fontColor=#333333;fillColor=#f5f5f5;strokeColor=#666666;" vertex="1" parent="1">
          <mxGeometry x="299" y="260" width="230" height="33" as="geometry" />
        </mxCell>
        <mxCell id="CHa4DZ00IoieFwtZ9VFr-16" value="" style="edgeStyle=entityRelationEdgeStyle;startArrow=none;endArrow=none;segment=10;curved=1;rounded=0;fontSize=15;fontColor=none;" edge="1" parent="1">
          <mxGeometry relative="1" as="geometry">
            <mxPoint x="529" y="280" as="sourcePoint" />
            <mxPoint x="600" y="260" as="targetPoint" />
          </mxGeometry>
        </mxCell>
        <mxCell id="CHa4DZ00IoieFwtZ9VFr-31" style="edgeStyle=orthogonalEdgeStyle;rounded=0;orthogonalLoop=1;jettySize=auto;html=1;exitX=0.5;exitY=1;exitDx=0;exitDy=0;entryX=0.5;entryY=0;entryDx=0;entryDy=0;fontSize=15;fontColor=none;" edge="1" parent="1" source="CHa4DZ00IoieFwtZ9VFr-17" target="CHa4DZ00IoieFwtZ9VFr-19">
          <mxGeometry relative="1" as="geometry" />
        </mxCell>
        <mxCell id="CHa4DZ00IoieFwtZ9VFr-17" value="改进Efficientdet模型训练模块" style="rounded=0;whiteSpace=wrap;html=1;fontSize=15;fontColor=#333333;fillColor=#f5f5f5;strokeColor=#666666;" vertex="1" parent="1">
          <mxGeometry x="299" y="330" width="230" height="33" as="geometry" />
        </mxCell>
        <mxCell id="CHa4DZ00IoieFwtZ9VFr-18" value="" style="edgeStyle=entityRelationEdgeStyle;startArrow=none;endArrow=none;segment=10;curved=1;rounded=0;fontSize=15;fontColor=none;" edge="1" parent="1">
          <mxGeometry relative="1" as="geometry">
            <mxPoint x="529" y="350" as="sourcePoint" />
            <mxPoint x="600" y="330" as="targetPoint" />
          </mxGeometry>
        </mxCell>
        <mxCell id="CHa4DZ00IoieFwtZ9VFr-19" value="结果检测模块" style="rounded=0;whiteSpace=wrap;html=1;fontSize=15;fontColor=#333333;fillColor=#f5f5f5;strokeColor=#666666;" vertex="1" parent="1">
          <mxGeometry x="299" y="400" width="230" height="33" as="geometry" />
        </mxCell>
        <mxCell id="CHa4DZ00IoieFwtZ9VFr-20" value="" style="edgeStyle=entityRelationEdgeStyle;startArrow=none;endArrow=none;segment=10;curved=1;rounded=0;fontSize=15;fontColor=none;" edge="1" parent="1">
          <mxGeometry relative="1" as="geometry">
            <mxPoint x="529" y="420" as="sourcePoint" />
            <mxPoint x="600" y="400" as="targetPoint" />
          </mxGeometry>
        </mxCell>
        <mxCell id="CHa4DZ00IoieFwtZ9VFr-32" value="101" style="text;html=1;align=center;verticalAlign=middle;resizable=0;points=[];autosize=1;strokeColor=none;fillColor=none;fontSize=15;fontColor=none;" vertex="1" parent="1">
          <mxGeometry x="595" y="30" width="50" height="30" as="geometry" />
        </mxCell>
        <mxCell id="CHa4DZ00IoieFwtZ9VFr-33" value="102" style="text;html=1;align=center;verticalAlign=middle;resizable=0;points=[];autosize=1;strokeColor=none;fillColor=none;fontSize=15;fontColor=none;" vertex="1" parent="1">
          <mxGeometry x="595" y="95" width="50" height="30" as="geometry" />
        </mxCell>
        <mxCell id="CHa4DZ00IoieFwtZ9VFr-34" value="103" style="text;html=1;align=center;verticalAlign=middle;resizable=0;points=[];autosize=1;strokeColor=none;fillColor=none;fontSize=15;fontColor=none;" vertex="1" parent="1">
          <mxGeometry x="595" y="165" width="50" height="30" as="geometry" />
        </mxCell>
        <mxCell id="CHa4DZ00IoieFwtZ9VFr-35" value="104" style="text;html=1;align=center;verticalAlign=middle;resizable=0;points=[];autosize=1;strokeColor=none;fillColor=none;fontSize=15;fontColor=none;" vertex="1" parent="1">
          <mxGeometry x="595" y="240" width="50" height="30" as="geometry" />
        </mxCell>
        <mxCell id="CHa4DZ00IoieFwtZ9VFr-36" value="105" style="text;html=1;align=center;verticalAlign=middle;resizable=0;points=[];autosize=1;strokeColor=none;fillColor=none;fontSize=15;fontColor=none;" vertex="1" parent="1">
          <mxGeometry x="595" y="305" width="50" height="30" as="geometry" />
        </mxCell>
        <mxCell id="CHa4DZ00IoieFwtZ9VFr-37" value="106" style="text;html=1;align=center;verticalAlign=middle;resizable=0;points=[];autosize=1;strokeColor=none;fillColor=none;fontSize=15;fontColor=none;" vertex="1" parent="1">
          <mxGeometry x="595" y="375" width="50" height="30" as="geometry" />
        </mxCell>
      </root>
    </mxGraphModel>
  </diagram>
</mxfile>
